# xmcd
# Track frame offsets:
# 150
# 25008
# 41546
# 63597
# 82726
# 101805
# 120723
# 136314
# 151233
# 170512
# 190917
# 202144
# 219189
#
# Disc length: 3231 seconds
# Revision: 0
# Processed by: cddbd v1.4PL0 Copyright (c) Steve Scherf et al.
# Submitted via: VisiTrax 2.9.3.171 - For more info visit www.synapsa.com
#
DISCID=ad0c9d0d
DTITLE=Blue Wing - Blue Wing
DYEAR=1998
DGENRE=Country
TTITLE0=Couldn't Stop the Wheels
TTITLE1=Long Hard Road
TTITLE2=Black Diamond
TTITLE3=Face of Stone
TTITLE4=Driven To My Knees
TTITLE5=In at 8:09
TTITLE6=Guns and Spurs
TTITLE7=The Western Trail
TTITLE8=Blue Wing
TTITLE9=In Texas Tonight
TTITLE10=King of the Hill
TTITLE11=Dear Emily
TTITLE12=Life on the Brink
EXTD=
EXTT0=
EXTT1=
EXTT2=
EXTT3=
EXTT4=
EXTT5=
EXTT6=
EXTT7=
EXTT8=
EXTT9=
EXTT10=
EXTT11=
EXTT12=
PLAYORDER=
